<svg xmlns="http://www.w3.org/2000/svg" width="44" height="44" viewBox="0 0 44 44" fill="none">
  <defs>
    <linearGradient id="hairGold" x1="12" y1="5" x2="32" y2="34" gradientUnits="userSpaceOnUse">
      <stop offset="0" stop-color="#FFF7D8"/>
      <stop offset="0.45" stop-color="#F6D77A"/>
      <stop offset="1" stop-color="#FFF2C2"/>
    </linearGradient>
    <linearGradient id="cream" x1="9" y1="18" x2="35" y2="42" gradientUnits="userSpaceOnUse">
      <stop offset="0" stop-color="#FFF8E8"/>
      <stop offset="1" stop-color="#F5DFA8"/>
    </linearGradient>
    <linearGradient id="blue" x1="13" y1="25" x2="31" y2="42" gradientUnits="userSpaceOnUse">
      <stop offset="0" stop-color="#DFF8FF"/>
      <stop offset="1" stop-color="#8ED7F2"/>
    </linearGradient>
    <filter id="softShadow" x="-20%" y="-20%" width="140%" height="140%">
      <feDropShadow dx="0" dy="1.2" stdDeviation="1.2" flood-color="#D7B75E" flood-opacity="0.28"/>
    </filter>
  </defs>

  <g filter="url(#softShadow)">
    <path d="M22 3.9C14.1 3.9 8.2 9.7 8.2 17.4c0 2.2.4 4.2 1.2 6.1-1.4 1.1-2.1 2.8-1.6 4.4.5 1.8 2.1 3 4 3.1 2.2 5 5.9 8.5 10.2 8.5s8-3.5 10.2-8.5c1.9-.1 3.5-1.3 4-3.1.5-1.6-.2-3.3-1.6-4.4.8-1.9 1.2-3.9 1.2-6.1C35.8 9.7 29.9 3.9 22 3.9Z" fill="url(#hairGold)"/>

    <path d="M12.4 20.1c.6-5.9 4.4-9.8 9.6-9.8s9 3.9 9.6 9.8c.4 4.6-.5 9.1-2.6 12.2-1.8 2.7-4.2 4.3-7 4.3s-5.2-1.6-7-4.3c-2.1-3.1-3-7.6-2.6-12.2Z" fill="#FFE8C9"/>

    <path d="M12.2 17.8c2.6-.5 5.2-2.2 6.7-5.2.4 2 2 3.7 4.2 4.5-.4-1.3-.1-2.8.8-4 1.3 2.8 3.6 4.7 7.7 5.1-.5-5.6-4.3-9.2-9.6-9.2-5.4 0-9.3 3.8-9.8 8.8Z" fill="url(#hairGold)"/>

    <path d="M9.7 24.7c-1.1.5-1.6 1.7-1.2 2.8.4 1.1 1.5 1.8 2.7 1.5-.5-1.4-.9-2.8-1.5-4.3Z" fill="#FFDDBD"/>
    <path d="M34.3 24.7c1.1.5 1.6 1.7 1.2 2.8-.4 1.1-1.5 1.8-2.7 1.5.5-1.4.9-2.8 1.5-4.3Z" fill="#FFDDBD"/>

    <path d="M15.6 22.7c.7-1 2.4-1.1 3.2-.1" stroke="#B78B4A" stroke-width="1.4" stroke-linecap="round"/>
    <path d="M25.2 22.6c.8-1 2.5-.9 3.2.1" stroke="#B78B4A" stroke-width="1.4" stroke-linecap="round"/>

    <circle cx="17.2" cy="25.2" r="1.45" fill="#6B4D3A"/>
    <circle cx="26.8" cy="25.2" r="1.45" fill="#6B4D3A"/>
    <circle cx="17.7" cy="24.7" r=".45" fill="#FFFDF6"/>
    <circle cx="27.3" cy="24.7" r=".45" fill="#FFFDF6"/>

    <path d="M19.1 29.7c1.4 1.4 4.4 1.4 5.8 0" stroke="#C36B5B" stroke-width="1.35" stroke-linecap="round"/>
    <ellipse cx="13.9" cy="27.8" rx="1.7" ry="1" fill="#FFB9A8" opacity=".55"/>
    <ellipse cx="30.1" cy="27.8" rx="1.7" ry="1" fill="#FFB9A8" opacity=".55"/>

    <path d="M11.7 38.6c1.8-4.4 5.5-6.7 10.3-6.7s8.5 2.3 10.3 6.7c-2.7 2-6.3 3.2-10.3 3.2s-7.6-1.2-10.3-3.2Z" fill="url(#blue)"/>
    <path d="M16.5 33.4c1.2 2 3 3.2 5.5 3.2s4.3-1.2 5.5-3.2c-1.6-1-3.5-1.5-5.5-1.5s-3.9.5-5.5 1.5Z" fill="url(#cream)"/>

    <path d="M15.4 6.5c-2.2 1-3.9 2.7-5 4.9-1.2 2.4-1.1 5.1-.6 7.4.4-2.4 1.5-4.4 3.1-6.1 1.3-1.4 3-2.4 5-3.1l-2.5-3.1Z" fill="#FFF4CD"/>
    <path d="M28.6 6.5c2.2 1 3.9 2.7 5 4.9 1.2 2.4 1.1 5.1.6 7.4-.4-2.4-1.5-4.4-3.1-6.1-1.3-1.4-3-2.4-5-3.1l2.5-3.1Z" fill="#F3CF67"/>

    <path d="M20.3 4.1c.2-1 1.2-1.8 2.2-1.6 1 .2 1.7 1.1 1.5 2.1 1.1-.3 2.2.4 2.5 1.5.3 1.1-.4 2.2-1.5 2.5-1.3.3-2.4-.4-3-1.3-.8.8-2 1.2-3.1.6-1-.5-1.4-1.8-.9-2.8.4-.8 1.3-1.2 2.3-1Z" fill="#FFF8DD"/>
    <circle cx="22.5" cy="6.1" r="1.2" fill="#92DDF5"/>

    <path d="M31.1 12.3c1.9.9 3.2 2.8 3.5 5.2" stroke="#B9EFFF" stroke-width="1.4" stroke-linecap="round"/>
    <path d="M12.9 12.3c-1.9.9-3.2 2.8-3.5 5.2" stroke="#FFF8D9" stroke-width="1.4" stroke-linecap="round"/>
  </g>
</svg>